<svg xmlns="http://www.w3.org/2000/svg" xmlns:xlink="http://www.w3.org/1999/xlink" width="80" height="48"><defs><linearGradient id="a"><stop offset="0%" stop-color="#1b6de7"/><stop offset="100%" stop-color="#5bc3ce"/></linearGradient><linearGradient id="b" x1="290.53" x2="325.53" y1="271.35" y2="236.35" gradientTransform="translate(30.603 38.539) scale(.8886)" gradientUnits="userSpaceOnUse" xlink:href="#a"/></defs><path fill="#fff" d="M50.766.05c-8.52.355-16.89 6.416-18.217 16.095-8.206-4.037-15.896 1.334-15.865 10.285C1.498 22.846-4.263 36.626 3.343 44.48c4.187 4.324 9.532 3.448 16.386 3.448h39.345c1.97-.02 3.944.043 5.7.003C73.192 47.93 80 41.06 80 32.64a15.242 15.242 0 0 0-10.073-14.318l-.04-.135C67.956 5.045 59.286-.305 50.766.051z"/><path fill="url(#b)" d="M311.296 241.5c-8.52.356-16.891 6.416-18.217 16.095-8.206-4.037-15.896 1.335-15.865 10.287-15.186-3.585-20.946 10.193-13.34 18.047 4.187 4.324 9.531 3.449 16.385 3.449h39.345c1.97-.02 3.943.042 5.7.002 8.417 0 15.226-6.871 15.226-15.29a15.194 15.194 0 0 0-1.867-7.265l-7.09 7.844-.69.324-11.331 5.307a.452.452 0 0 1-.617-.559l4.144-11.793a.43.43 0 0 1 .135-.191.465.465 0 0 1 .066-.094l.055-.06 7.111-7.87c-.01-.032-.019-.064-.03-.095-1.929-13.143-10.6-18.492-19.12-18.137zm20.984 19.077l-7.11 7.861a1.383 1.383 0 0 1-.976.467 1.436 1.436 0 0 1-.468-.053l-1.778 5.014 3.139 2.832 4.822-2.248a1.452 1.452 0 0 1 .262-1.496l7.234-8.072c-.173-.228-.35-.45-.537-.668l-3.586 3.969-3.18 3.511a2.54 2.54 0 0 1-3.564.239l-.002-.002-.002-.002c-.459-.436-.723-1.086-.758-1.768a2.557 2.557 0 0 1 .668-1.855l6.604-7.301a15.178 15.178 0 0 0-.768-.428z" transform="translate(-260.533 -241.453)"/><path fill="none" stroke="#fff" stroke-linecap="round" stroke-linejoin="round" stroke-width="1.333" d="M13.197 39.456s3.533-4.058 5.934-4.085c3.65-.042 5.51 6.013 9.16 6 4.993-.018 7.478-8.307 12.47-8.298 4.985.009 7.44 8.113 12.42 8.328 2.216.096 5.826-3.214 5.826-3.214"/></svg>