<svg xmlns="http://www.w3.org/2000/svg" width="80" height="48" viewBox="0 0 80 48">
  <title>Schul-Cloud</title>
  <defs transform="translate(-250.53 -278.35)">
    <linearGradient id="a">
      <stop stop-color="#cc4645" offset="0%"/>
      <stop stop-color="#fff" offset="100%"/>
    </linearGradient>
  </defs>
  <path
    d="M50.765.048c-8.52.355-16.89 6.415-18.217 16.094-8.206-4.036-15.895 1.335-15.865 10.287C1.497 22.844-4.263 36.623 3.343 44.476c4.187 4.324 9.532 3.45 16.385 3.45h39.346c1.97-.02 3.943.041 5.7 0C73.19 47.925 80 41.053 80 32.635a15.194 15.194 0 0 0-1.867-7.266l-7.09 7.844-.69.324-10.822 5.069a.667.667 0 0 1-.07.072s-.932.854-2.155 1.7c-1.222.844-2.697 1.752-4.152 1.689-2.846-.124-4.815-2.408-6.672-4.46-1.857-2.051-3.587-3.869-5.719-3.869-1.063 0-2.004.43-2.947 1.153-.943.722-1.858 1.73-2.793 2.767s-1.888 2.103-2.97 2.936c-1.083.833-2.324 1.433-3.757 1.443-1.097 0-2.048-.456-2.863-1.074-.814-.618-1.522-1.4-2.21-2.154-.69-.753-1.358-1.476-2.032-1.985-.674-.508-1.321-.797-2.049-.787-.83.01-2.3.909-3.441 1.89-1.142.983-2 1.966-2 1.966a.667.667 0 1 1-1.004-.875s.91-1.046 2.134-2.1c1.226-1.053 2.723-2.197 4.295-2.215 1.098-.013 2.05.442 2.866 1.057.815.615 1.524 1.397 2.213 2.15.689.754 1.358 1.48 2.033 1.993.675.512 1.325.802 2.053.802 1.064 0 2.005-.442 2.949-1.168.943-.726 1.86-1.734 2.795-2.771.935-1.037 1.887-2.102 2.97-2.932 1.084-.83 2.327-1.428 3.76-1.428 2.853.01 4.844 2.251 6.705 4.307 1.862 2.056 3.609 3.93 5.743 4.022.761.033 2.199-.667 3.336-1.454 1.137-.786 2.011-1.586 2.011-1.586a.667.667 0 0 1 .073-.062l3.916-11.14a.428.428 0 0 1 .134-.192.479.479 0 0 1 .067-.094l.055-.06 7.11-7.87-.028-.096C67.957 5.04 59.287-.31 50.765.045zM71.75 19.126l-7.11 7.862c-.239.272-.585.447-.976.467-.162.01-.321-.01-.469-.053l-1.777 5.013 3.139 2.832L69.379 33a1.452 1.452 0 0 1 .262-1.496l7.234-8.072c-.173-.228-.351-.45-.537-.668l-3.586 3.969-3.18 3.511a2.54 2.54 0 0 1-3.564.239h-.004c-.459-.436-.724-1.086-.758-1.768a2.556 2.556 0 0 1 .668-1.855l6.603-7.301a15.177 15.177 0 0 0-.767-.428z"
    fill="#fff"/>
</svg>
